<svg xmlns="http://www.w3.org/2000/svg" xmlns:ev="http://www.w3.org/2001/xml-events" xmlns:xlink="http://www.w3.org/1999/xlink" baseProfile="full" height="400" version="1.1" width="1000"><defs><style type="text/css"><![CDATA[.background path {fill: #808080; fill-opacity: 0}.background path:nth-child(odd) {fill-opacity: .1}.axes {font-size: 14px}.x-axis .tick .lab {font-weight: bold; dominant-baseline: hanging}.axes, .tree {font-size: 14px; text-anchor: middle}.axes line, .edge {stroke: black; fill: none}.axes .ax-skip {stroke-dasharray: 4}.y-axis .grid {stroke: #FAFAFA}.node > .sym {fill: black; stroke: none}.site > .sym {stroke: black}.mut text {fill: red; font-style: italic}.mut.extra text {fill: hotpink}.mut line {fill: none; stroke: none}.mut .sym {fill: none; stroke: red}.mut.extra .sym {stroke: hotpink}.node .mut .sym {stroke-width: 1.5px}.tree text, .tree-sequence text {dominant-baseline: central}.plotbox .lab.lft {text-anchor: end}.plotbox .lab.rgt {text-anchor: start}.node.p0 > .sym {fill: red} .node.p1 > .sym {fill: green} .node.p2 > .sym {fill: blue} .node.p3 > .sym {fill: purple} .node.p4 > .sym {fill: black} .node.p5 > .sym {fill: orange}]]></style></defs><g class="tree t0"><g class="axes"><g class="y-axis"><g class="title" transform="translate(0 189.1)"><text class="lab" text-anchor="middle" transform="translate(11) rotate(-90)"> </text></g><line class="ax-line" x1="56.8" x2="56.8" y1="368.2" y2="10"/><g class="ticks"><g class="tick" transform="translate(56.8 26.8)"><line x1="0" x2="-5" y1="0" y2="0"/><g transform="translate(-6 0)"><text class="lab" text-anchor="end">28121.82</text></g></g><g class="tick" transform="translate(56.8 120.979)"><line x1="0" x2="-5" y1="0" y2="0"/><g transform="translate(-6 0)"><text class="lab" text-anchor="end">4787.06</text></g></g><g class="tick" transform="translate(56.8 168.069)"><line x1="0" x2="-5" y1="0" y2="0"/><g transform="translate(-6 0)"><text class="lab" text-anchor="end">1484.22</text></g></g><g class="tick" transform="translate(56.8 356.428)"><line x1="0" x2="-5" y1="0" y2="0"/><g transform="translate(-6 0)"><text class="lab" text-anchor="end">104.28</text></g></g><g class="tick" transform="translate(56.8 368.2)"><line x1="0" x2="-5" y1="0" y2="0"/><g transform="translate(-6 0)"><text class="lab" text-anchor="end">0.00</text></g></g><g class="tick" transform="translate(56.8 179.841)"><line x1="0" x2="-5" y1="0" y2="0"/><g transform="translate(-6 0)"><text class="lab" text-anchor="end">1354.07</text></g></g><g class="tick" transform="translate(56.8 309.338)"><line x1="0" x2="-5" y1="0" y2="0"/><g transform="translate(-6 0)"><text class="lab" text-anchor="end">164.77</text></g></g><g class="tick" transform="translate(56.8 144.524)"><line x1="0" x2="-5" y1="0" y2="0"/><g transform="translate(-6 0)"><text class="lab" text-anchor="end">2136.26</text></g></g><g class="tick" transform="translate(56.8 250.476)"><line x1="0" x2="-5" y1="0" y2="0"/><g transform="translate(-6 0)"><text class="lab" text-anchor="end">334.12</text></g></g><g class="tick" transform="translate(56.8 262.248)"><line x1="0" x2="-5" y1="0" y2="0"/><g transform="translate(-6 0)"><text class="lab" text-anchor="end">245.79</text></g></g><g class="tick" transform="translate(56.8 321.11)"><line x1="0" x2="-5" y1="0" y2="0"/><g transform="translate(-6 0)"><text class="lab" text-anchor="end">158.99</text></g></g><g class="tick" transform="translate(56.8 332.883)"><line x1="0" x2="-5" y1="0" y2="0"/><g transform="translate(-6 0)"><text class="lab" text-anchor="end">147.98</text></g></g><g class="tick" transform="translate(56.8 344.655)"><line x1="0" x2="-5" y1="0" y2="0"/><g transform="translate(-6 0)"><text class="lab" text-anchor="end">144.66</text></g></g><g class="tick" transform="translate(56.8 238.703)"><line x1="0" x2="-5" y1="0" y2="0"/><g transform="translate(-6 0)"><text class="lab" text-anchor="end">482.61</text></g></g><g class="tick" transform="translate(56.8 297.566)"><line x1="0" x2="-5" y1="0" y2="0"/><g transform="translate(-6 0)"><text class="lab" text-anchor="end">164.84</text></g></g><g class="tick" transform="translate(56.8 285.793)"><line x1="0" x2="-5" y1="0" y2="0"/><g transform="translate(-6 0)"><text class="lab" text-anchor="end">213.21</text></g></g><g class="tick" transform="translate(56.8 38.5724)"><line x1="0" x2="-5" y1="0" y2="0"/><g transform="translate(-6 0)"><text class="lab" text-anchor="end">26194.55</text></g></g><g class="tick" transform="translate(56.8 97.4345)"><line x1="0" x2="-5" y1="0" y2="0"/><g transform="translate(-6 0)"><text class="lab" text-anchor="end">7450.19</text></g></g><g class="tick" transform="translate(56.8 191.614)"><line x1="0" x2="-5" y1="0" y2="0"/><g transform="translate(-6 0)"><text class="lab" text-anchor="end">1179.05</text></g></g><g class="tick" transform="translate(56.8 50.3448)"><line x1="0" x2="-5" y1="0" y2="0"/><g transform="translate(-6 0)"><text class="lab" text-anchor="end">15182.37</text></g></g><g class="tick" transform="translate(56.8 73.8897)"><line x1="0" x2="-5" y1="0" y2="0"/><g transform="translate(-6 0)"><text class="lab" text-anchor="end">13494.64</text></g></g><g class="tick" transform="translate(56.8 156.297)"><line x1="0" x2="-5" y1="0" y2="0"/><g transform="translate(-6 0)"><text class="lab" text-anchor="end">1801.54</text></g></g><g class="tick" transform="translate(56.8 274.021)"><line x1="0" x2="-5" y1="0" y2="0"/><g transform="translate(-6 0)"><text class="lab" text-anchor="end">215.74</text></g></g><g class="tick" transform="translate(56.8 85.6621)"><line x1="0" x2="-5" y1="0" y2="0"/><g transform="translate(-6 0)"><text class="lab" text-anchor="end">11929.83</text></g></g><g class="tick" transform="translate(56.8 215.159)"><line x1="0" x2="-5" y1="0" y2="0"/><g transform="translate(-6 0)"><text class="lab" text-anchor="end">998.83</text></g></g><g class="tick" transform="translate(56.8 109.207)"><line x1="0" x2="-5" y1="0" y2="0"/><g transform="translate(-6 0)"><text class="lab" text-anchor="end">5769.66</text></g></g><g class="tick" transform="translate(56.8 132.752)"><line x1="0" x2="-5" y1="0" y2="0"/><g transform="translate(-6 0)"><text class="lab" text-anchor="end">2846.85</text></g></g><g class="tick" transform="translate(56.8 226.931)"><line x1="0" x2="-5" y1="0" y2="0"/><g transform="translate(-6 0)"><text class="lab" text-anchor="end">682.05</text></g></g><g class="tick" transform="translate(56.8 62.1172)"><line x1="0" x2="-5" y1="0" y2="0"/><g transform="translate(-6 0)"><text class="lab" text-anchor="end">14665.86</text></g></g><g class="tick" transform="translate(56.8 203.386)"><line x1="0" x2="-5" y1="0" y2="0"/><g transform="translate(-6 0)"><text class="lab" text-anchor="end">1005.19</text></g></g></g></g></g><g class="plotbox"><g class="c2 node n58 p0 root" transform="translate(550.135 26.8)"><g class="a58 c2 node n50 p5" transform="translate(168.051 94.1793)"><g class="a50 c2 node n46 p2" transform="translate(-111.313 47.0897)"><g class="a46 c2 node n30 p2" transform="translate(34.62 188.359)"><g class="a30 i6 leaf node n12 p2 sample" transform="translate(-15.3867 11.7724)"><path class="edge" d="M 0 0 V -11.7724 H 15.3867"/><rect class="sym" height="6" width="6" x="-3" y="-3"/><text class="lab" transform="translate(0 11)">EUR</text></g><g class="a30 i9 leaf node n18 p2 sample" transform="translate(15.3867 11.7724)"><path class="edge" d="M 0 0 V -11.7724 H -15.3867"/><rect class="sym" height="6" width="6" x="-3" y="-3"/><text class="lab" transform="translate(0 11)">EUR</text></g><path class="edge" d="M 0 0 V -188.359 H -34.62"/><circle class="sym" cx="0" cy="0" r="3"/><text class="lab rgt" transform="translate(3 -7.0)"/></g><g class="a46 c2 node n45 p2" transform="translate(-34.62 11.7724)"><g class="a45 i7 leaf node n14 p2 sample" transform="translate(23.08 188.359)"><path class="edge" d="M 0 0 V -188.359 H -23.08"/><rect class="sym" height="6" width="6" x="-3" y="-3"/><text class="lab" transform="translate(0 11)">EUR</text></g><g class="a45 c2 node n34 p2" transform="translate(-23.08 129.497)"><g class="a34 i5 leaf node n11 p2 sample" transform="translate(-15.3867 58.8621)"><path class="edge" d="M 0 0 V -58.8621 H 15.3867"/><rect class="sym" height="6" width="6" x="-3" y="-3"/><text class="lab" transform="translate(0 11)">EUR</text></g><g class="a34 i6 leaf node n13 p2 sample" transform="translate(15.3867 58.8621)"><path class="edge" d="M 0 0 V -58.8621 H -15.3867"/><rect class="sym" height="6" width="6" x="-3" y="-3"/><text class="lab" transform="translate(0 11)">EUR</text></g><path class="edge" d="M 0 0 V -129.497 H 23.08"/><circle class="sym" cx="0" cy="0" r="3"/><text class="lab lft" transform="translate(-3 -7.0)"/></g><path class="edge" d="M 0 0 V -11.7724 H 34.62"/><circle class="sym" cx="0" cy="0" r="3"/><text class="lab lft" transform="translate(-3 -7.0)"/></g><path class="edge" d="M 0 0 V -47.0897 H 111.313"/><circle class="sym" cx="0" cy="0" r="3"/><text class="lab lft" transform="translate(-3 -7.0)"/></g><g class="a50 c2 node n48 p5" transform="translate(111.313 23.5448)"><g class="a48 c2 node n39 p5" transform="translate(95.6858 105.952)"><g class="a39 i12 leaf node n25 p5 sample" transform="translate(39.4283 117.724)"><path class="edge" d="M 0 0 V -117.724 H -39.4283"/><rect class="sym" height="6" width="6" x="-3" y="-3"/><text class="lab" transform="translate(0 11)">ND</text></g><g class="a39 c2 node n38 p5" transform="translate(-39.4283 11.7724)"><g class="a38 i14 leaf node n28 p5 sample" transform="translate(48.0833 105.952)"><path class="edge" d="M 0 0 V -105.952 H -48.0833"/><rect class="sym" height="6" width="6" x="-3" y="-3"/><text class="lab" transform="translate(0 11)">ND</text></g><g class="a38 c2 node n33 p5" transform="translate(-48.0833 58.8621)"><g class="a33 i10 leaf node n21 p5 sample" transform="translate(-26.9267 47.0897)"><path class="edge" d="M 0 0 V -47.0897 H 26.9267"/><rect class="sym" height="6" width="6" x="-3" y="-3"/><text class="lab" transform="translate(0 11)">ND</text></g><g class="a33 c2 node n32 p5" transform="translate(26.9267 11.7724)"><g class="a32 i11 leaf node n22 p5 sample" transform="translate(-23.08 35.3172)"><path class="edge" d="M 0 0 V -35.3172 H 23.08"/><rect class="sym" height="6" width="6" x="-3" y="-3"/><text class="lab" transform="translate(0 11)">ND</text></g><g class="a32 c2 node n31 p5" transform="translate(23.08 11.7724)"><g class="a31 i11 leaf node n23 p5 sample" transform="translate(-15.3867 23.5448)"><path class="edge" d="M 0 0 V -23.5448 H 15.3867"/><rect class="sym" height="6" width="6" x="-3" y="-3"/><text class="lab" transform="translate(0 11)">ND</text></g><g class="a31 i13 leaf node n27 p5 sample" transform="translate(15.3867 23.5448)"><path class="edge" d="M 0 0 V -23.5448 H -15.3867"/><rect class="sym" height="6" width="6" x="-3" y="-3"/><text class="lab" transform="translate(0 11)">ND</text></g><path class="edge" d="M 0 0 V -11.7724 H -23.08"/><circle class="sym" cx="0" cy="0" r="3"/><text class="lab rgt" transform="translate(3 -7.0)"/></g><path class="edge" d="M 0 0 V -11.7724 H -26.9267"/><circle class="sym" cx="0" cy="0" r="3"/><text class="lab rgt" transform="translate(3 -7.0)"/></g><path class="edge" d="M 0 0 V -58.8621 H 48.0833"/><circle class="sym" cx="0" cy="0" r="3"/><text class="lab lft" transform="translate(-3 -7.0)"/></g><path class="edge" d="M 0 0 V -11.7724 H 39.4283"/><circle class="sym" cx="0" cy="0" r="3"/><text class="lab lft" transform="translate(-3 -7.0)"/></g><path class="edge" d="M 0 0 V -105.952 H -95.6858"/><circle class="sym" cx="0" cy="0" r="3"/><text class="lab rgt" transform="translate(3 -7.0)"/></g><g class="a48 c2 node n40 p5" transform="translate(-95.6858 94.1793)"><g class="a40 c2 node n35 p5" transform="translate(30.7733 58.8621)"><g class="a35 i13 leaf node n26 p5 sample" transform="translate(-15.3867 70.6345)"><path class="edge" d="M 0 0 V -70.6345 H 15.3867"/><rect class="sym" height="6" width="6" x="-3" y="-3"/><text class="lab" transform="translate(0 11)">ND</text></g><g class="a35 i14 leaf node n29 p5 sample" transform="translate(15.3867 70.6345)"><path class="edge" d="M 0 0 V -70.6345 H -15.3867"/><rect class="sym" height="6" width="6" x="-3" y="-3"/><text class="lab" transform="translate(0 11)">ND</text></g><path class="edge" d="M 0 0 V -58.8621 H -30.7733"/><circle class="sym" cx="0" cy="0" r="3"/><text class="lab rgt" transform="translate(3 -7.0)"/></g><g class="a40 c2 node n36 p5" transform="translate(-30.7733 47.0897)"><g class="a36 i10 leaf node n20 p5 sample" transform="translate(-15.3867 82.4069)"><path class="edge" d="M 0 0 V -82.4069 H 15.3867"/><rect class="sym" height="6" width="6" x="-3" y="-3"/><text class="lab" transform="translate(0 11)">ND</text></g><g class="a36 i12 leaf node n24 p5 sample" transform="translate(15.3867 82.4069)"><path class="edge" d="M 0 0 V -82.4069 H -15.3867"/><rect class="sym" height="6" width="6" x="-3" y="-3"/><text class="lab" transform="translate(0 11)">ND</text></g><path class="edge" d="M 0 0 V -47.0897 H 30.7733"/><circle class="sym" cx="0" cy="0" r="3"/><text class="lab lft" transform="translate(-3 -7.0)"/></g><path class="edge" d="M 0 0 V -94.1793 H 95.6858"/><circle class="sym" cx="0" cy="0" r="3"/><text class="lab lft" transform="translate(-3 -7.0)"/></g><path class="edge" d="M 0 0 V -23.5448 H -111.313"/><circle class="sym" cx="0" cy="0" r="3"/><text class="lab rgt" transform="translate(3 -7.0)"/></g><path class="edge" d="M 0 0 V -94.1793 H -168.051"/><circle class="sym" cx="0" cy="0" r="3"/><text class="lab rgt" transform="translate(3 -7.0)"/></g><g class="a58 c2 node n57 p4" transform="translate(-168.051 11.7724)"><g class="a57 c2 node n52 p4" transform="translate(82.4629 58.8621)"><g class="a52 i1 leaf node n3 p3 sample" transform="translate(-23.08 270.766)"><path class="edge" d="M 0 0 V -270.766 H 23.08"/><rect class="sym" height="6" width="6" x="-3" y="-3"/><text class="lab" transform="translate(0 11)">AFR</text></g><g class="a52 c2 node n44 p3" transform="translate(23.08 94.1793)"><g class="a44 i3 leaf node n7 p3 sample" transform="translate(-15.3867 176.586)"><path class="edge" d="M 0 0 V -176.586 H 15.3867"/><rect class="sym" height="6" width="6" x="-3" y="-3"/><text class="lab" transform="translate(0 11)">AFR</text></g><g class="a44 i4 leaf node n8 p3 sample" transform="translate(15.3867 176.586)"><path class="edge" d="M 0 0 V -176.586 H -15.3867"/><rect class="sym" height="6" width="6" x="-3" y="-3"/><text class="lab" transform="translate(0 11)">AFR</text></g><path class="edge" d="M 0 0 V -94.1793 H -23.08"/><circle class="sym" cx="0" cy="0" r="3"/><text class="lab rgt" transform="translate(3 -7.0)"/></g><path class="edge" d="M 0 0 V -58.8621 H -82.4629"/><circle class="sym" cx="0" cy="0" r="3"/><text class="lab rgt" transform="translate(3 -7.0)"/></g><g class="a57 c2 node n56 p4" transform="translate(-82.4629 11.7724)"><g class="a56 c2 node n54 p4" transform="translate(-72.6058 23.5448)"><g class="a54 c2 node n47 p2" transform="translate(52.8917 82.4069)"><g class="a47 i7 leaf node n15 p2 sample" transform="translate(-23.08 211.903)"><path class="edge" d="M 0 0 V -211.903 H 23.08"/><rect class="sym" height="6" width="6" x="-3" y="-3"/><text class="lab" transform="translate(0 11)">EUR</text></g><g class="a47 c2 node n37 p2" transform="translate(23.08 117.724)"><g class="a37 i8 leaf node n16 p2 sample" transform="translate(-15.3867 94.1793)"><path class="edge" d="M 0 0 V -94.1793 H 15.3867"/><rect class="sym" height="6" width="6" x="-3" y="-3"/><text class="lab" transform="translate(0 11)">EUR</text></g><g class="a37 i9 leaf node n19 p2 sample" transform="translate(15.3867 94.1793)"><path class="edge" d="M 0 0 V -94.1793 H -15.3867"/><rect class="sym" height="6" width="6" x="-3" y="-3"/><text class="lab" transform="translate(0 11)">EUR</text></g><path class="edge" d="M 0 0 V -117.724 H -23.08"/><circle class="sym" cx="0" cy="0" r="3"/><text class="lab rgt" transform="translate(3 -7.0)"/></g><path class="edge" d="M 0 0 V -82.4069 H -52.8917"/><circle class="sym" cx="0" cy="0" r="3"/><text class="lab rgt" transform="translate(3 -7.0)"/></g><g class="a54 c2 node n53 p4" transform="translate(-52.8917 11.7724)"><g class="a53 c2 node n42 p3" transform="translate(36.5433 129.497)"><g class="a42 i2 leaf node n5 p3 sample" transform="translate(-15.3867 153.041)"><path class="edge" d="M 0 0 V -153.041 H 15.3867"/><rect class="sym" height="6" width="6" x="-3" y="-3"/><text class="lab" transform="translate(0 11)">AFR</text></g><g class="a42 i4 leaf node n9 p3 sample" transform="translate(15.3867 153.041)"><path class="edge" d="M 0 0 V -153.041 H -15.3867"/><rect class="sym" height="6" width="6" x="-3" y="-3"/><text class="lab" transform="translate(0 11)">AFR</text></g><path class="edge" d="M 0 0 V -129.497 H -36.5433"/><circle class="sym" cx="0" cy="0" r="3"/><text class="lab rgt" transform="translate(3 -7.0)"/></g><g class="a53 c2 node n51 p4" transform="translate(-36.5433 23.5448)"><g class="a51 i3 leaf node n6 p3 sample" transform="translate(26.9267 258.993)"><path class="edge" d="M 0 0 V -258.993 H -26.9267"/><rect class="sym" height="6" width="6" x="-3" y="-3"/><text class="lab" transform="translate(0 11)">AFR</text></g><g class="a51 c2 node n49 p3" transform="translate(-26.9267 23.5448)"><g class="a49 i2 leaf node n4 p3 sample" transform="translate(23.08 235.448)"><path class="edge" d="M 0 0 V -235.448 H -23.08"/><rect class="sym" height="6" width="6" x="-3" y="-3"/><text class="lab" transform="translate(0 11)">AFR</text></g><g class="a49 c2 node n41 p3" transform="translate(-23.08 94.1793)"><g class="a41 i0 leaf node n0 p3 sample" transform="translate(-15.3867 141.269)"><path class="edge" d="M 0 0 V -141.269 H 15.3867"/><rect class="sym" height="6" width="6" x="-3" y="-3"/><text class="lab" transform="translate(0 11)">AFR</text></g><g class="a41 i1 leaf node n2 p3 sample" transform="translate(15.3867 141.269)"><path class="edge" d="M 0 0 V -141.269 H -15.3867"/><rect class="sym" height="6" width="6" x="-3" y="-3"/><text class="lab" transform="translate(0 11)">AFR</text></g><path class="edge" d="M 0 0 V -94.1793 H 23.08"/><circle class="sym" cx="0" cy="0" r="3"/><text class="lab lft" transform="translate(-3 -7.0)"/></g><path class="edge" d="M 0 0 V -23.5448 H 26.9267"/><circle class="sym" cx="0" cy="0" r="3"/><text class="lab lft" transform="translate(-3 -7.0)"/></g><path class="edge" d="M 0 0 V -23.5448 H 36.5433"/><circle class="sym" cx="0" cy="0" r="3"/><text class="lab lft" transform="translate(-3 -7.0)"/></g><path class="edge" d="M 0 0 V -11.7724 H 52.8917"/><circle class="sym" cx="0" cy="0" r="3"/><text class="lab lft" transform="translate(-3 -7.0)"/></g><path class="edge" d="M 0 0 V -23.5448 H 72.6058"/><circle class="sym" cx="0" cy="0" r="3"/><text class="lab lft" transform="translate(-3 -7.0)"/></g><g class="a56 c2 node n55 p4" transform="translate(72.6058 11.7724)"><g class="a55 i0 leaf node n1 p3 sample" transform="translate(-23.08 306.083)"><path class="edge" d="M 0 0 V -306.083 H 23.08"/><rect class="sym" height="6" width="6" x="-3" y="-3"/><text class="lab" transform="translate(0 11)">AFR</text></g><g class="a55 c2 node n43 p2" transform="translate(23.08 141.269)"><g class="a43 i5 leaf node n10 p2 sample" transform="translate(-15.3867 164.814)"><path class="edge" d="M 0 0 V -164.814 H 15.3867"/><rect class="sym" height="6" width="6" x="-3" y="-3"/><text class="lab" transform="translate(0 11)">EUR</text></g><g class="a43 i8 leaf node n17 p2 sample" transform="translate(15.3867 164.814)"><path class="edge" d="M 0 0 V -164.814 H -15.3867"/><rect class="sym" height="6" width="6" x="-3" y="-3"/><text class="lab" transform="translate(0 11)">EUR</text></g><path class="edge" d="M 0 0 V -141.269 H -23.08"/><circle class="sym" cx="0" cy="0" r="3"/><text class="lab rgt" transform="translate(3 -7.0)"/></g><path class="edge" d="M 0 0 V -11.7724 H -72.6058"/><circle class="sym" cx="0" cy="0" r="3"/><text class="lab rgt" transform="translate(3 -7.0)"/></g><path class="edge" d="M 0 0 V -11.7724 H 82.4629"/><circle class="sym" cx="0" cy="0" r="3"/><text class="lab lft" transform="translate(-3 -7.0)"/></g><path class="edge" d="M 0 0 V -11.7724 H 168.051"/><circle class="sym" cx="0" cy="0" r="3"/><text class="lab lft" transform="translate(-3 -7.0)"/></g><circle class="sym" cx="0" cy="0" r="3"/><text class="lab" transform="translate(0 -11)"/></g></g></g></svg>