<svg xmlns="http://www.w3.org/2000/svg" xmlns:ev="http://www.w3.org/2001/xml-events" xmlns:xlink="http://www.w3.org/1999/xlink" baseProfile="full" height="400" version="1.1" width="1000"><defs><style type="text/css"><![CDATA[.background path {fill: #808080; fill-opacity: 0}.background path:nth-child(odd) {fill-opacity: .1}.axes {font-size: 14px}.x-axis .tick .lab {font-weight: bold; dominant-baseline: hanging}.axes, .tree {font-size: 14px; text-anchor: middle}.axes line, .edge {stroke: black; fill: none}.axes .ax-skip {stroke-dasharray: 4}.y-axis .grid {stroke: #FAFAFA}.node > .sym {fill: black; stroke: none}.site > .sym {stroke: black}.mut text {fill: red; font-style: italic}.mut.extra text {fill: hotpink}.mut line {fill: none; stroke: none}.mut .sym {fill: none; stroke: red}.mut.extra .sym {stroke: hotpink}.node .mut .sym {stroke-width: 1.5px}.tree text, .tree-sequence text {dominant-baseline: central}.plotbox .lab.lft {text-anchor: end}.plotbox .lab.rgt {text-anchor: start}.node.p0 > .sym {fill: red} .node.p1 > .sym {fill: green} .node.p2 > .sym {fill: blue} .node.p3 > .sym {fill: purple} .node.p4 > .sym {fill: black} .node.p5 > .sym {fill: orange}]]></style></defs><g class="tree t0"><g class="axes"><g class="y-axis"><g class="title" transform="translate(0 189.1)"><text class="lab" text-anchor="middle" transform="translate(11) rotate(-90)"> </text></g><line class="ax-line" x1="56.8" x2="56.8" y1="368.2" y2="10"/><g class="ticks"><g class="tick" transform="translate(56.8 26.8)"><line x1="0" x2="-5" y1="0" y2="0"/><g transform="translate(-6 0)"><text class="lab" text-anchor="end">29865.87</text></g></g><g class="tick" transform="translate(56.8 254.4)"><line x1="0" x2="-5" y1="0" y2="0"/><g transform="translate(-6 0)"><text class="lab" text-anchor="end">1500.00</text></g></g><g class="tick" transform="translate(56.8 140.6)"><line x1="0" x2="-5" y1="0" y2="0"/><g transform="translate(-6 0)"><text class="lab" text-anchor="end">6026.49</text></g></g><g class="tick" transform="translate(56.8 368.2)"><line x1="0" x2="-5" y1="0" y2="0"/><g transform="translate(-6 0)"><text class="lab" text-anchor="end">0.00</text></g></g></g></g></g><g class="plotbox"><g class="c2 node n4 p0 root" transform="translate(595.333 26.8)"><g class="a4 i2 leaf m0 m10 m15 m19 m20 m22 m23 m24 m25 m34 m44 m48 m49 m50 m53 m57 m60 m63 m66 m68 m8 node n2 p5 s0 s10 s15 s19 s20 s22 s23 s24 s25 s34 s44 s48 s49 s50 s53 s57 s60 s63 s66 s68 s8 sample" transform="translate(230.8 227.6)"><path class="edge" d="M 0 0 V -227.6 H -230.8"/><g class="mut m0 s0" transform="translate(0 -217.255)"><line x1="0" x2="0" y1="0" y2="217.255"/><path class="sym" d="M -3,-3 l 6,6 M -3,3 l 6,-6"/><text class="lab rgt" transform="translate(5 0)">0</text></g><g class="mut m8 s8" transform="translate(0 -206.909)"><line x1="0" x2="0" y1="0" y2="206.909"/><path class="sym" d="M -3,-3 l 6,6 M -3,3 l 6,-6"/><text class="lab rgt" transform="translate(5 0)">8</text></g><g class="mut m10 s10" transform="translate(0 -196.564)"><line x1="0" x2="0" y1="0" y2="196.564"/><path class="sym" d="M -3,-3 l 6,6 M -3,3 l 6,-6"/><text class="lab rgt" transform="translate(5 0)">10</text></g><g class="mut m15 s15" transform="translate(0 -186.218)"><line x1="0" x2="0" y1="0" y2="186.218"/><path class="sym" d="M -3,-3 l 6,6 M -3,3 l 6,-6"/><text class="lab rgt" transform="translate(5 0)">15</text></g><g class="mut m19 s19" transform="translate(0 -175.873)"><line x1="0" x2="0" y1="0" y2="175.873"/><path class="sym" d="M -3,-3 l 6,6 M -3,3 l 6,-6"/><text class="lab rgt" transform="translate(5 0)">19</text></g><g class="mut m20 s20" transform="translate(0 -165.527)"><line x1="0" x2="0" y1="0" y2="165.527"/><path class="sym" d="M -3,-3 l 6,6 M -3,3 l 6,-6"/><text class="lab rgt" transform="translate(5 0)">20</text></g><g class="mut m22 s22" transform="translate(0 -155.182)"><line x1="0" x2="0" y1="0" y2="155.182"/><path class="sym" d="M -3,-3 l 6,6 M -3,3 l 6,-6"/><text class="lab rgt" transform="translate(5 0)">22</text></g><g class="mut m23 s23" transform="translate(0 -144.836)"><line x1="0" x2="0" y1="0" y2="144.836"/><path class="sym" d="M -3,-3 l 6,6 M -3,3 l 6,-6"/><text class="lab rgt" transform="translate(5 0)">23</text></g><g class="mut m24 s24" transform="translate(0 -134.491)"><line x1="0" x2="0" y1="0" y2="134.491"/><path class="sym" d="M -3,-3 l 6,6 M -3,3 l 6,-6"/><text class="lab rgt" transform="translate(5 0)">24</text></g><g class="mut m25 s25" transform="translate(0 -124.145)"><line x1="0" x2="0" y1="0" y2="124.145"/><path class="sym" d="M -3,-3 l 6,6 M -3,3 l 6,-6"/><text class="lab rgt" transform="translate(5 0)">25</text></g><g class="mut m34 s34" transform="translate(0 -113.8)"><line x1="0" x2="0" y1="0" y2="113.8"/><path class="sym" d="M -3,-3 l 6,6 M -3,3 l 6,-6"/><text class="lab rgt" transform="translate(5 0)">34</text></g><g class="mut m44 s44" transform="translate(0 -103.455)"><line x1="0" x2="0" y1="0" y2="103.455"/><path class="sym" d="M -3,-3 l 6,6 M -3,3 l 6,-6"/><text class="lab rgt" transform="translate(5 0)">44</text></g><g class="mut m48 s48" transform="translate(0 -93.1091)"><line x1="0" x2="0" y1="0" y2="93.1091"/><path class="sym" d="M -3,-3 l 6,6 M -3,3 l 6,-6"/><text class="lab rgt" transform="translate(5 0)">48</text></g><g class="mut m49 s49" transform="translate(0 -82.7636)"><line x1="0" x2="0" y1="0" y2="82.7636"/><path class="sym" d="M -3,-3 l 6,6 M -3,3 l 6,-6"/><text class="lab rgt" transform="translate(5 0)">49</text></g><g class="mut m50 s50" transform="translate(0 -72.4182)"><line x1="0" x2="0" y1="0" y2="72.4182"/><path class="sym" d="M -3,-3 l 6,6 M -3,3 l 6,-6"/><text class="lab rgt" transform="translate(5 0)">50</text></g><g class="mut m53 s53" transform="translate(0 -62.0727)"><line x1="0" x2="0" y1="0" y2="62.0727"/><path class="sym" d="M -3,-3 l 6,6 M -3,3 l 6,-6"/><text class="lab rgt" transform="translate(5 0)">53</text></g><g class="mut m57 s57" transform="translate(0 -51.7273)"><line x1="0" x2="0" y1="0" y2="51.7273"/><path class="sym" d="M -3,-3 l 6,6 M -3,3 l 6,-6"/><text class="lab rgt" transform="translate(5 0)">57</text></g><g class="mut m60 s60" transform="translate(0 -41.3818)"><line x1="0" x2="0" y1="0" y2="41.3818"/><path class="sym" d="M -3,-3 l 6,6 M -3,3 l 6,-6"/><text class="lab rgt" transform="translate(5 0)">60</text></g><g class="mut m63 s63" transform="translate(0 -31.0364)"><line x1="0" x2="0" y1="0" y2="31.0364"/><path class="sym" d="M -3,-3 l 6,6 M -3,3 l 6,-6"/><text class="lab rgt" transform="translate(5 0)">63</text></g><g class="mut m66 s66" transform="translate(0 -20.6909)"><line x1="0" x2="0" y1="0" y2="20.6909"/><path class="sym" d="M -3,-3 l 6,6 M -3,3 l 6,-6"/><text class="lab rgt" transform="translate(5 0)">66</text></g><g class="mut m68 s68" transform="translate(0 -10.3455)"><line x1="0" x2="0" y1="0" y2="10.3455"/><path class="sym" d="M -3,-3 l 6,6 M -3,3 l 6,-6"/><text class="lab rgt" transform="translate(5 0)">68</text></g><rect class="sym" height="6" width="6" x="-3" y="-3"/><text class="lab" transform="translate(0 11)">ND</text></g><g class="a4 c2 m1 m12 m14 m16 m17 m18 m2 m21 m26 m29 m3 m30 m31 m32 m33 m35 m37 m38 m39 m4 m40 m41 m43 m45 m46 m5 m51 m55 m56 m58 m59 m61 m62 m64 m67 m7 m9 node n3 p4 s1 s12 s14 s16 s17 s18 s2 s21 s26 s29 s3 s30 s31 s32 s33 s35 s37 s38 s39 s4 s40 s41 s43 s45 s46 s5 s51 s55 s56 s58 s59 s61 s62 s64 s67 s7 s9" transform="translate(-230.8 113.8)"><g class="a3 i0 leaf m27 m28 m42 m52 m54 node n0 p3 s27 s28 s42 s52 s54 sample" transform="translate(-153.867 227.6)"><path class="edge" d="M 0 0 V -227.6 H 153.867"/><g class="mut m27 s27" transform="translate(0 -189.667)"><line x1="0" x2="0" y1="0" y2="189.667"/><path class="sym" d="M -3,-3 l 6,6 M -3,3 l 6,-6"/><text class="lab lft" transform="translate(-5 0)">27</text></g><g class="mut m28 s28" transform="translate(0 -151.733)"><line x1="0" x2="0" y1="0" y2="151.733"/><path class="sym" d="M -3,-3 l 6,6 M -3,3 l 6,-6"/><text class="lab lft" transform="translate(-5 0)">28</text></g><g class="mut m42 s42" transform="translate(0 -113.8)"><line x1="0" x2="0" y1="0" y2="113.8"/><path class="sym" d="M -3,-3 l 6,6 M -3,3 l 6,-6"/><text class="lab lft" transform="translate(-5 0)">42</text></g><g class="mut m52 s52" transform="translate(0 -75.8667)"><line x1="0" x2="0" y1="0" y2="75.8667"/><path class="sym" d="M -3,-3 l 6,6 M -3,3 l 6,-6"/><text class="lab lft" transform="translate(-5 0)">52</text></g><g class="mut m54 s54" transform="translate(0 -37.9333)"><line x1="0" x2="0" y1="0" y2="37.9333"/><path class="sym" d="M -3,-3 l 6,6 M -3,3 l 6,-6"/><text class="lab lft" transform="translate(-5 0)">54</text></g><rect class="sym" height="6" width="6" x="-3" y="-3"/><text class="lab" transform="translate(0 11)">AFR</text></g><g class="a3 i1 leaf m11 m13 m36 m47 m6 m65 node n1 p2 s11 s13 s36 s47 s6 s65 sample" transform="translate(153.867 227.6)"><path class="edge" d="M 0 0 V -227.6 H -153.867"/><g class="mut m6 s6" transform="translate(0 -195.086)"><line x1="0" x2="0" y1="0" y2="195.086"/><path class="sym" d="M -3,-3 l 6,6 M -3,3 l 6,-6"/><text class="lab rgt" transform="translate(5 0)">6</text></g><g class="mut m11 s11" transform="translate(0 -162.571)"><line x1="0" x2="0" y1="0" y2="162.571"/><path class="sym" d="M -3,-3 l 6,6 M -3,3 l 6,-6"/><text class="lab rgt" transform="translate(5 0)">11</text></g><g class="mut m13 s13" transform="translate(0 -130.057)"><line x1="0" x2="0" y1="0" y2="130.057"/><path class="sym" d="M -3,-3 l 6,6 M -3,3 l 6,-6"/><text class="lab rgt" transform="translate(5 0)">13</text></g><g class="mut m36 s36" transform="translate(0 -97.5429)"><line x1="0" x2="0" y1="0" y2="97.5429"/><path class="sym" d="M -3,-3 l 6,6 M -3,3 l 6,-6"/><text class="lab rgt" transform="translate(5 0)">36</text></g><g class="mut m47 s47" transform="translate(0 -65.0286)"><line x1="0" x2="0" y1="0" y2="65.0286"/><path class="sym" d="M -3,-3 l 6,6 M -3,3 l 6,-6"/><text class="lab rgt" transform="translate(5 0)">47</text></g><g class="mut m65 s65" transform="translate(0 -32.5143)"><line x1="0" x2="0" y1="0" y2="32.5143"/><path class="sym" d="M -3,-3 l 6,6 M -3,3 l 6,-6"/><text class="lab rgt" transform="translate(5 0)">65</text></g><rect class="sym" height="6" width="6" x="-3" y="-3"/><text class="lab" transform="translate(0 11)">EUR</text></g><path class="edge" d="M 0 0 V -113.8 H 230.8"/><g class="mut m1 s1" transform="translate(0 -110.805)"><line x1="0" x2="0" y1="0" y2="110.805"/><path class="sym" d="M -3,-3 l 6,6 M -3,3 l 6,-6"/><text class="lab lft" transform="translate(-5 0)">1</text></g><g class="mut m2 s2" transform="translate(0 -107.811)"><line x1="0" x2="0" y1="0" y2="107.811"/><path class="sym" d="M -3,-3 l 6,6 M -3,3 l 6,-6"/><text class="lab lft" transform="translate(-5 0)">2</text></g><g class="mut m3 s3" transform="translate(0 -104.816)"><line x1="0" x2="0" y1="0" y2="104.816"/><path class="sym" d="M -3,-3 l 6,6 M -3,3 l 6,-6"/><text class="lab lft" transform="translate(-5 0)">3</text></g><g class="mut m4 s4" transform="translate(0 -101.821)"><line x1="0" x2="0" y1="0" y2="101.821"/><path class="sym" d="M -3,-3 l 6,6 M -3,3 l 6,-6"/><text class="lab lft" transform="translate(-5 0)">4</text></g><g class="mut m5 s5" transform="translate(0 -98.8263)"><line x1="0" x2="0" y1="0" y2="98.8263"/><path class="sym" d="M -3,-3 l 6,6 M -3,3 l 6,-6"/><text class="lab lft" transform="translate(-5 0)">5</text></g><g class="mut m7 s7" transform="translate(0 -95.8316)"><line x1="0" x2="0" y1="0" y2="95.8316"/><path class="sym" d="M -3,-3 l 6,6 M -3,3 l 6,-6"/><text class="lab lft" transform="translate(-5 0)">7</text></g><g class="mut m9 s9" transform="translate(0 -92.8368)"><line x1="0" x2="0" y1="0" y2="92.8368"/><path class="sym" d="M -3,-3 l 6,6 M -3,3 l 6,-6"/><text class="lab lft" transform="translate(-5 0)">9</text></g><g class="mut m12 s12" transform="translate(0 -89.8421)"><line x1="0" x2="0" y1="0" y2="89.8421"/><path class="sym" d="M -3,-3 l 6,6 M -3,3 l 6,-6"/><text class="lab lft" transform="translate(-5 0)">12</text></g><g class="mut m14 s14" transform="translate(0 -86.8474)"><line x1="0" x2="0" y1="0" y2="86.8474"/><path class="sym" d="M -3,-3 l 6,6 M -3,3 l 6,-6"/><text class="lab lft" transform="translate(-5 0)">14</text></g><g class="mut m16 s16" transform="translate(0 -83.8526)"><line x1="0" x2="0" y1="0" y2="83.8526"/><path class="sym" d="M -3,-3 l 6,6 M -3,3 l 6,-6"/><text class="lab lft" transform="translate(-5 0)">16</text></g><g class="mut m17 s17" transform="translate(0 -80.8579)"><line x1="0" x2="0" y1="0" y2="80.8579"/><path class="sym" d="M -3,-3 l 6,6 M -3,3 l 6,-6"/><text class="lab lft" transform="translate(-5 0)">17</text></g><g class="mut m18 s18" transform="translate(0 -77.8632)"><line x1="0" x2="0" y1="0" y2="77.8632"/><path class="sym" d="M -3,-3 l 6,6 M -3,3 l 6,-6"/><text class="lab lft" transform="translate(-5 0)">18</text></g><g class="mut m21 s21" transform="translate(0 -74.8684)"><line x1="0" x2="0" y1="0" y2="74.8684"/><path class="sym" d="M -3,-3 l 6,6 M -3,3 l 6,-6"/><text class="lab lft" transform="translate(-5 0)">21</text></g><g class="mut m26 s26" transform="translate(0 -71.8737)"><line x1="0" x2="0" y1="0" y2="71.8737"/><path class="sym" d="M -3,-3 l 6,6 M -3,3 l 6,-6"/><text class="lab lft" transform="translate(-5 0)">26</text></g><g class="mut m29 s29" transform="translate(0 -68.8789)"><line x1="0" x2="0" y1="0" y2="68.8789"/><path class="sym" d="M -3,-3 l 6,6 M -3,3 l 6,-6"/><text class="lab lft" transform="translate(-5 0)">29</text></g><g class="mut m30 s30" transform="translate(0 -65.8842)"><line x1="0" x2="0" y1="0" y2="65.8842"/><path class="sym" d="M -3,-3 l 6,6 M -3,3 l 6,-6"/><text class="lab lft" transform="translate(-5 0)">30</text></g><g class="mut m31 s31" transform="translate(0 -62.8895)"><line x1="0" x2="0" y1="0" y2="62.8895"/><path class="sym" d="M -3,-3 l 6,6 M -3,3 l 6,-6"/><text class="lab lft" transform="translate(-5 0)">31</text></g><g class="mut m32 s32" transform="translate(0 -59.8947)"><line x1="0" x2="0" y1="0" y2="59.8947"/><path class="sym" d="M -3,-3 l 6,6 M -3,3 l 6,-6"/><text class="lab lft" transform="translate(-5 0)">32</text></g><g class="mut m33 s33" transform="translate(0 -56.9)"><line x1="0" x2="0" y1="0" y2="56.9"/><path class="sym" d="M -3,-3 l 6,6 M -3,3 l 6,-6"/><text class="lab lft" transform="translate(-5 0)">33</text></g><g class="mut m35 s35" transform="translate(0 -53.9053)"><line x1="0" x2="0" y1="0" y2="53.9053"/><path class="sym" d="M -3,-3 l 6,6 M -3,3 l 6,-6"/><text class="lab lft" transform="translate(-5 0)">35</text></g><g class="mut m37 s37" transform="translate(0 -50.9105)"><line x1="0" x2="0" y1="0" y2="50.9105"/><path class="sym" d="M -3,-3 l 6,6 M -3,3 l 6,-6"/><text class="lab lft" transform="translate(-5 0)">37</text></g><g class="mut m38 s38" transform="translate(0 -47.9158)"><line x1="0" x2="0" y1="0" y2="47.9158"/><path class="sym" d="M -3,-3 l 6,6 M -3,3 l 6,-6"/><text class="lab lft" transform="translate(-5 0)">38</text></g><g class="mut m39 s39" transform="translate(0 -44.9211)"><line x1="0" x2="0" y1="0" y2="44.9211"/><path class="sym" d="M -3,-3 l 6,6 M -3,3 l 6,-6"/><text class="lab lft" transform="translate(-5 0)">39</text></g><g class="mut m40 s40" transform="translate(0 -41.9263)"><line x1="0" x2="0" y1="0" y2="41.9263"/><path class="sym" d="M -3,-3 l 6,6 M -3,3 l 6,-6"/><text class="lab lft" transform="translate(-5 0)">40</text></g><g class="mut m41 s41" transform="translate(0 -38.9316)"><line x1="0" x2="0" y1="0" y2="38.9316"/><path class="sym" d="M -3,-3 l 6,6 M -3,3 l 6,-6"/><text class="lab lft" transform="translate(-5 0)">41</text></g><g class="mut m43 s43" transform="translate(0 -35.9368)"><line x1="0" x2="0" y1="0" y2="35.9368"/><path class="sym" d="M -3,-3 l 6,6 M -3,3 l 6,-6"/><text class="lab lft" transform="translate(-5 0)">43</text></g><g class="mut m45 s45" transform="translate(0 -32.9421)"><line x1="0" x2="0" y1="0" y2="32.9421"/><path class="sym" d="M -3,-3 l 6,6 M -3,3 l 6,-6"/><text class="lab lft" transform="translate(-5 0)">45</text></g><g class="mut m46 s46" transform="translate(0 -29.9474)"><line x1="0" x2="0" y1="0" y2="29.9474"/><path class="sym" d="M -3,-3 l 6,6 M -3,3 l 6,-6"/><text class="lab lft" transform="translate(-5 0)">46</text></g><g class="mut m51 s51" transform="translate(0 -26.9526)"><line x1="0" x2="0" y1="0" y2="26.9526"/><path class="sym" d="M -3,-3 l 6,6 M -3,3 l 6,-6"/><text class="lab lft" transform="translate(-5 0)">51</text></g><g class="mut m55 s55" transform="translate(0 -23.9579)"><line x1="0" x2="0" y1="0" y2="23.9579"/><path class="sym" d="M -3,-3 l 6,6 M -3,3 l 6,-6"/><text class="lab lft" transform="translate(-5 0)">55</text></g><g class="mut m56 s56" transform="translate(0 -20.9632)"><line x1="0" x2="0" y1="0" y2="20.9632"/><path class="sym" d="M -3,-3 l 6,6 M -3,3 l 6,-6"/><text class="lab lft" transform="translate(-5 0)">56</text></g><g class="mut m58 s58" transform="translate(0 -17.9684)"><line x1="0" x2="0" y1="0" y2="17.9684"/><path class="sym" d="M -3,-3 l 6,6 M -3,3 l 6,-6"/><text class="lab lft" transform="translate(-5 0)">58</text></g><g class="mut m59 s59" transform="translate(0 -14.9737)"><line x1="0" x2="0" y1="0" y2="14.9737"/><path class="sym" d="M -3,-3 l 6,6 M -3,3 l 6,-6"/><text class="lab lft" transform="translate(-5 0)">59</text></g><g class="mut m61 s61" transform="translate(0 -11.9789)"><line x1="0" x2="0" y1="0" y2="11.9789"/><path class="sym" d="M -3,-3 l 6,6 M -3,3 l 6,-6"/><text class="lab lft" transform="translate(-5 0)">61</text></g><g class="mut m62 s62" transform="translate(0 -8.98421)"><line x1="0" x2="0" y1="0" y2="8.98421"/><path class="sym" d="M -3,-3 l 6,6 M -3,3 l 6,-6"/><text class="lab lft" transform="translate(-5 0)">62</text></g><g class="mut m64 s64" transform="translate(0 -5.98947)"><line x1="0" x2="0" y1="0" y2="5.98947"/><path class="sym" d="M -3,-3 l 6,6 M -3,3 l 6,-6"/><text class="lab lft" transform="translate(-5 0)">64</text></g><g class="mut m67 s67" transform="translate(0 -2.99474)"><line x1="0" x2="0" y1="0" y2="2.99474"/><path class="sym" d="M -3,-3 l 6,6 M -3,3 l 6,-6"/><text class="lab lft" transform="translate(-5 0)">67</text></g><circle class="sym" cx="0" cy="0" r="3"/><text class="lab lft" transform="translate(-3 -7.0)"/></g><circle class="sym" cx="0" cy="0" r="3"/><text class="lab" transform="translate(0 -11)"/></g></g></g></svg>