<svg xmlns="http://www.w3.org/2000/svg" xmlns:ev="http://www.w3.org/2001/xml-events" xmlns:xlink="http://www.w3.org/1999/xlink" baseProfile="full" height="400" version="1.1" width="1000"><defs><style type="text/css"><![CDATA[.background path {fill: #808080; fill-opacity: 0}.background path:nth-child(odd) {fill-opacity: .1}.axes {font-size: 14px}.x-axis .tick .lab {font-weight: bold; dominant-baseline: hanging}.axes, .tree {font-size: 14px; text-anchor: middle}.axes line, .edge {stroke: black; fill: none}.axes .ax-skip {stroke-dasharray: 4}.y-axis .grid {stroke: #FAFAFA}.node > .sym {fill: black; stroke: none}.site > .sym {stroke: black}.mut text {fill: red; font-style: italic}.mut.extra text {fill: hotpink}.mut line {fill: none; stroke: none}.mut .sym {fill: none; stroke: red}.mut.extra .sym {stroke: hotpink}.node .mut .sym {stroke-width: 1.5px}.tree text, .tree-sequence text {dominant-baseline: central}.plotbox .lab.lft {text-anchor: end}.plotbox .lab.rgt {text-anchor: start}.node.p0 > .sym {fill: red} .node.p1 > .sym {fill: green} .node.p2 > .sym {fill: blue} .node.p3 > .sym {fill: purple} .node.p4 > .sym {fill: black} .node.p5 > .sym {fill: orange}]]></style></defs><g class="tree t0"><g class="axes"><g class="y-axis"><g class="title" transform="translate(0 189.1)"><text class="lab" text-anchor="middle" transform="translate(11) rotate(-90)"> </text></g><line class="ax-line" x1="56.8" x2="56.8" y1="368.2" y2="10"/><g class="ticks"><g class="tick" transform="translate(56.8 26.8)"><line x1="0" x2="-5" y1="0" y2="0"/><g transform="translate(-6 0)"><text class="lab" text-anchor="end">29865.87</text></g></g><g class="tick" transform="translate(56.8 254.4)"><line x1="0" x2="-5" y1="0" y2="0"/><g transform="translate(-6 0)"><text class="lab" text-anchor="end">1500.00</text></g></g><g class="tick" transform="translate(56.8 140.6)"><line x1="0" x2="-5" y1="0" y2="0"/><g transform="translate(-6 0)"><text class="lab" text-anchor="end">6026.49</text></g></g><g class="tick" transform="translate(56.8 368.2)"><line x1="0" x2="-5" y1="0" y2="0"/><g transform="translate(-6 0)"><text class="lab" text-anchor="end">0.00</text></g></g></g></g></g><g class="plotbox"><g class="c2 node n4 p0 root" transform="translate(595.333 26.8)"><g class="a4 i2 leaf m1 m13 m14 m15 m16 m17 m2 m22 m23 m24 m27 m28 m29 m3 m30 m35 m37 m38 m41 m43 m44 m45 m46 m47 m48 m50 m52 m53 m57 m6 m60 m61 m65 m68 m70 m8 m9 node n2 p5 s1 s13 s14 s15 s16 s17 s2 s22 s23 s24 s27 s28 s29 s3 s30 s35 s37 s38 s41 s43 s44 s45 s46 s47 s48 s50 s52 s53 s57 s6 s60 s61 s65 s68 s70 s8 s9 sample" transform="translate(230.8 227.6)"><path class="edge" d="M 0 0 V -227.6 H -230.8"/><g class="mut m1 s1" transform="translate(0 -221.611)"><line x1="0" x2="0" y1="0" y2="221.611"/><path class="sym" d="M -3,-3 l 6,6 M -3,3 l 6,-6"/><text class="lab rgt" transform="translate(5 0)">1</text></g><g class="mut m2 s2" transform="translate(0 -215.621)"><line x1="0" x2="0" y1="0" y2="215.621"/><path class="sym" d="M -3,-3 l 6,6 M -3,3 l 6,-6"/><text class="lab rgt" transform="translate(5 0)">2</text></g><g class="mut m3 s3" transform="translate(0 -209.632)"><line x1="0" x2="0" y1="0" y2="209.632"/><path class="sym" d="M -3,-3 l 6,6 M -3,3 l 6,-6"/><text class="lab rgt" transform="translate(5 0)">3</text></g><g class="mut m6 s6" transform="translate(0 -203.642)"><line x1="0" x2="0" y1="0" y2="203.642"/><path class="sym" d="M -3,-3 l 6,6 M -3,3 l 6,-6"/><text class="lab rgt" transform="translate(5 0)">6</text></g><g class="mut m8 s8" transform="translate(0 -197.653)"><line x1="0" x2="0" y1="0" y2="197.653"/><path class="sym" d="M -3,-3 l 6,6 M -3,3 l 6,-6"/><text class="lab rgt" transform="translate(5 0)">8</text></g><g class="mut m9 s9" transform="translate(0 -191.663)"><line x1="0" x2="0" y1="0" y2="191.663"/><path class="sym" d="M -3,-3 l 6,6 M -3,3 l 6,-6"/><text class="lab rgt" transform="translate(5 0)">9</text></g><g class="mut m13 s13" transform="translate(0 -185.674)"><line x1="0" x2="0" y1="0" y2="185.674"/><path class="sym" d="M -3,-3 l 6,6 M -3,3 l 6,-6"/><text class="lab rgt" transform="translate(5 0)">13</text></g><g class="mut m14 s14" transform="translate(0 -179.684)"><line x1="0" x2="0" y1="0" y2="179.684"/><path class="sym" d="M -3,-3 l 6,6 M -3,3 l 6,-6"/><text class="lab rgt" transform="translate(5 0)">14</text></g><g class="mut m15 s15" transform="translate(0 -173.695)"><line x1="0" x2="0" y1="0" y2="173.695"/><path class="sym" d="M -3,-3 l 6,6 M -3,3 l 6,-6"/><text class="lab rgt" transform="translate(5 0)">15</text></g><g class="mut m16 s16" transform="translate(0 -167.705)"><line x1="0" x2="0" y1="0" y2="167.705"/><path class="sym" d="M -3,-3 l 6,6 M -3,3 l 6,-6"/><text class="lab rgt" transform="translate(5 0)">16</text></g><g class="mut m17 s17" transform="translate(0 -161.716)"><line x1="0" x2="0" y1="0" y2="161.716"/><path class="sym" d="M -3,-3 l 6,6 M -3,3 l 6,-6"/><text class="lab rgt" transform="translate(5 0)">17</text></g><g class="mut m22 s22" transform="translate(0 -155.726)"><line x1="0" x2="0" y1="0" y2="155.726"/><path class="sym" d="M -3,-3 l 6,6 M -3,3 l 6,-6"/><text class="lab rgt" transform="translate(5 0)">22</text></g><g class="mut m23 s23" transform="translate(0 -149.737)"><line x1="0" x2="0" y1="0" y2="149.737"/><path class="sym" d="M -3,-3 l 6,6 M -3,3 l 6,-6"/><text class="lab rgt" transform="translate(5 0)">23</text></g><g class="mut m24 s24" transform="translate(0 -143.747)"><line x1="0" x2="0" y1="0" y2="143.747"/><path class="sym" d="M -3,-3 l 6,6 M -3,3 l 6,-6"/><text class="lab rgt" transform="translate(5 0)">24</text></g><g class="mut m27 s27" transform="translate(0 -137.758)"><line x1="0" x2="0" y1="0" y2="137.758"/><path class="sym" d="M -3,-3 l 6,6 M -3,3 l 6,-6"/><text class="lab rgt" transform="translate(5 0)">27</text></g><g class="mut m28 s28" transform="translate(0 -131.768)"><line x1="0" x2="0" y1="0" y2="131.768"/><path class="sym" d="M -3,-3 l 6,6 M -3,3 l 6,-6"/><text class="lab rgt" transform="translate(5 0)">28</text></g><g class="mut m29 s29" transform="translate(0 -125.779)"><line x1="0" x2="0" y1="0" y2="125.779"/><path class="sym" d="M -3,-3 l 6,6 M -3,3 l 6,-6"/><text class="lab rgt" transform="translate(5 0)">29</text></g><g class="mut m30 s30" transform="translate(0 -119.789)"><line x1="0" x2="0" y1="0" y2="119.789"/><path class="sym" d="M -3,-3 l 6,6 M -3,3 l 6,-6"/><text class="lab rgt" transform="translate(5 0)">30</text></g><g class="mut m35 s35" transform="translate(0 -113.8)"><line x1="0" x2="0" y1="0" y2="113.8"/><path class="sym" d="M -3,-3 l 6,6 M -3,3 l 6,-6"/><text class="lab rgt" transform="translate(5 0)">35</text></g><g class="mut m37 s37" transform="translate(0 -107.811)"><line x1="0" x2="0" y1="0" y2="107.811"/><path class="sym" d="M -3,-3 l 6,6 M -3,3 l 6,-6"/><text class="lab rgt" transform="translate(5 0)">37</text></g><g class="mut m38 s38" transform="translate(0 -101.821)"><line x1="0" x2="0" y1="0" y2="101.821"/><path class="sym" d="M -3,-3 l 6,6 M -3,3 l 6,-6"/><text class="lab rgt" transform="translate(5 0)">38</text></g><g class="mut m41 s41" transform="translate(0 -95.8316)"><line x1="0" x2="0" y1="0" y2="95.8316"/><path class="sym" d="M -3,-3 l 6,6 M -3,3 l 6,-6"/><text class="lab rgt" transform="translate(5 0)">41</text></g><g class="mut m43 s43" transform="translate(0 -89.8421)"><line x1="0" x2="0" y1="0" y2="89.8421"/><path class="sym" d="M -3,-3 l 6,6 M -3,3 l 6,-6"/><text class="lab rgt" transform="translate(5 0)">43</text></g><g class="mut m44 s44" transform="translate(0 -83.8526)"><line x1="0" x2="0" y1="0" y2="83.8526"/><path class="sym" d="M -3,-3 l 6,6 M -3,3 l 6,-6"/><text class="lab rgt" transform="translate(5 0)">44</text></g><g class="mut m45 s45" transform="translate(0 -77.8632)"><line x1="0" x2="0" y1="0" y2="77.8632"/><path class="sym" d="M -3,-3 l 6,6 M -3,3 l 6,-6"/><text class="lab rgt" transform="translate(5 0)">45</text></g><g class="mut m46 s46" transform="translate(0 -71.8737)"><line x1="0" x2="0" y1="0" y2="71.8737"/><path class="sym" d="M -3,-3 l 6,6 M -3,3 l 6,-6"/><text class="lab rgt" transform="translate(5 0)">46</text></g><g class="mut m47 s47" transform="translate(0 -65.8842)"><line x1="0" x2="0" y1="0" y2="65.8842"/><path class="sym" d="M -3,-3 l 6,6 M -3,3 l 6,-6"/><text class="lab rgt" transform="translate(5 0)">47</text></g><g class="mut m48 s48" transform="translate(0 -59.8947)"><line x1="0" x2="0" y1="0" y2="59.8947"/><path class="sym" d="M -3,-3 l 6,6 M -3,3 l 6,-6"/><text class="lab rgt" transform="translate(5 0)">48</text></g><g class="mut m50 s50" transform="translate(0 -53.9053)"><line x1="0" x2="0" y1="0" y2="53.9053"/><path class="sym" d="M -3,-3 l 6,6 M -3,3 l 6,-6"/><text class="lab rgt" transform="translate(5 0)">50</text></g><g class="mut m52 s52" transform="translate(0 -47.9158)"><line x1="0" x2="0" y1="0" y2="47.9158"/><path class="sym" d="M -3,-3 l 6,6 M -3,3 l 6,-6"/><text class="lab rgt" transform="translate(5 0)">52</text></g><g class="mut m53 s53" transform="translate(0 -41.9263)"><line x1="0" x2="0" y1="0" y2="41.9263"/><path class="sym" d="M -3,-3 l 6,6 M -3,3 l 6,-6"/><text class="lab rgt" transform="translate(5 0)">53</text></g><g class="mut m57 s57" transform="translate(0 -35.9368)"><line x1="0" x2="0" y1="0" y2="35.9368"/><path class="sym" d="M -3,-3 l 6,6 M -3,3 l 6,-6"/><text class="lab rgt" transform="translate(5 0)">57</text></g><g class="mut m60 s60" transform="translate(0 -29.9474)"><line x1="0" x2="0" y1="0" y2="29.9474"/><path class="sym" d="M -3,-3 l 6,6 M -3,3 l 6,-6"/><text class="lab rgt" transform="translate(5 0)">60</text></g><g class="mut m61 s61" transform="translate(0 -23.9579)"><line x1="0" x2="0" y1="0" y2="23.9579"/><path class="sym" d="M -3,-3 l 6,6 M -3,3 l 6,-6"/><text class="lab rgt" transform="translate(5 0)">61</text></g><g class="mut m65 s65" transform="translate(0 -17.9684)"><line x1="0" x2="0" y1="0" y2="17.9684"/><path class="sym" d="M -3,-3 l 6,6 M -3,3 l 6,-6"/><text class="lab rgt" transform="translate(5 0)">65</text></g><g class="mut m68 s68" transform="translate(0 -11.9789)"><line x1="0" x2="0" y1="0" y2="11.9789"/><path class="sym" d="M -3,-3 l 6,6 M -3,3 l 6,-6"/><text class="lab rgt" transform="translate(5 0)">68</text></g><g class="mut m70 s70" transform="translate(0 -5.98947)"><line x1="0" x2="0" y1="0" y2="5.98947"/><path class="sym" d="M -3,-3 l 6,6 M -3,3 l 6,-6"/><text class="lab rgt" transform="translate(5 0)">70</text></g><rect class="sym" height="6" width="6" x="-3" y="-3"/><text class="lab" transform="translate(0 11)">ND</text></g><g class="a4 c2 m0 m10 m18 m19 m20 m21 m26 m31 m32 m36 m39 m40 m42 m49 m5 m51 m54 m55 m56 m58 m59 m67 m69 m7 m71 node n3 p4 s0 s10 s18 s19 s20 s21 s26 s31 s32 s36 s39 s40 s42 s49 s5 s51 s54 s55 s56 s58 s59 s67 s69 s7 s71" transform="translate(-230.8 113.8)"><g class="a3 i0 leaf m11 m25 m34 m63 m66 node n0 p3 s11 s25 s34 s63 s66 sample" transform="translate(-153.867 227.6)"><path class="edge" d="M 0 0 V -227.6 H 153.867"/><g class="mut m11 s11" transform="translate(0 -189.667)"><line x1="0" x2="0" y1="0" y2="189.667"/><path class="sym" d="M -3,-3 l 6,6 M -3,3 l 6,-6"/><text class="lab lft" transform="translate(-5 0)">11</text></g><g class="mut m25 s25" transform="translate(0 -151.733)"><line x1="0" x2="0" y1="0" y2="151.733"/><path class="sym" d="M -3,-3 l 6,6 M -3,3 l 6,-6"/><text class="lab lft" transform="translate(-5 0)">25</text></g><g class="mut m34 s34" transform="translate(0 -113.8)"><line x1="0" x2="0" y1="0" y2="113.8"/><path class="sym" d="M -3,-3 l 6,6 M -3,3 l 6,-6"/><text class="lab lft" transform="translate(-5 0)">34</text></g><g class="mut m63 s63" transform="translate(0 -75.8667)"><line x1="0" x2="0" y1="0" y2="75.8667"/><path class="sym" d="M -3,-3 l 6,6 M -3,3 l 6,-6"/><text class="lab lft" transform="translate(-5 0)">63</text></g><g class="mut m66 s66" transform="translate(0 -37.9333)"><line x1="0" x2="0" y1="0" y2="37.9333"/><path class="sym" d="M -3,-3 l 6,6 M -3,3 l 6,-6"/><text class="lab lft" transform="translate(-5 0)">66</text></g><rect class="sym" height="6" width="6" x="-3" y="-3"/><text class="lab" transform="translate(0 11)">AFR</text></g><g class="a3 i1 leaf m12 m33 m4 m62 m64 node n1 p2 s12 s33 s4 s62 s64 sample" transform="translate(153.867 227.6)"><path class="edge" d="M 0 0 V -227.6 H -153.867"/><g class="mut m4 s4" transform="translate(0 -189.667)"><line x1="0" x2="0" y1="0" y2="189.667"/><path class="sym" d="M -3,-3 l 6,6 M -3,3 l 6,-6"/><text class="lab rgt" transform="translate(5 0)">4</text></g><g class="mut m12 s12" transform="translate(0 -151.733)"><line x1="0" x2="0" y1="0" y2="151.733"/><path class="sym" d="M -3,-3 l 6,6 M -3,3 l 6,-6"/><text class="lab rgt" transform="translate(5 0)">12</text></g><g class="mut m33 s33" transform="translate(0 -113.8)"><line x1="0" x2="0" y1="0" y2="113.8"/><path class="sym" d="M -3,-3 l 6,6 M -3,3 l 6,-6"/><text class="lab rgt" transform="translate(5 0)">33</text></g><g class="mut m62 s62" transform="translate(0 -75.8667)"><line x1="0" x2="0" y1="0" y2="75.8667"/><path class="sym" d="M -3,-3 l 6,6 M -3,3 l 6,-6"/><text class="lab rgt" transform="translate(5 0)">62</text></g><g class="mut m64 s64" transform="translate(0 -37.9333)"><line x1="0" x2="0" y1="0" y2="37.9333"/><path class="sym" d="M -3,-3 l 6,6 M -3,3 l 6,-6"/><text class="lab rgt" transform="translate(5 0)">64</text></g><rect class="sym" height="6" width="6" x="-3" y="-3"/><text class="lab" transform="translate(0 11)">EUR</text></g><path class="edge" d="M 0 0 V -113.8 H 230.8"/><g class="mut m0 s0" transform="translate(0 -109.423)"><line x1="0" x2="0" y1="0" y2="109.423"/><path class="sym" d="M -3,-3 l 6,6 M -3,3 l 6,-6"/><text class="lab lft" transform="translate(-5 0)">0</text></g><g class="mut m5 s5" transform="translate(0 -105.046)"><line x1="0" x2="0" y1="0" y2="105.046"/><path class="sym" d="M -3,-3 l 6,6 M -3,3 l 6,-6"/><text class="lab lft" transform="translate(-5 0)">5</text></g><g class="mut m7 s7" transform="translate(0 -100.669)"><line x1="0" x2="0" y1="0" y2="100.669"/><path class="sym" d="M -3,-3 l 6,6 M -3,3 l 6,-6"/><text class="lab lft" transform="translate(-5 0)">7</text></g><g class="mut m10 s10" transform="translate(0 -96.2923)"><line x1="0" x2="0" y1="0" y2="96.2923"/><path class="sym" d="M -3,-3 l 6,6 M -3,3 l 6,-6"/><text class="lab lft" transform="translate(-5 0)">10</text></g><g class="mut m18 s18" transform="translate(0 -91.9154)"><line x1="0" x2="0" y1="0" y2="91.9154"/><path class="sym" d="M -3,-3 l 6,6 M -3,3 l 6,-6"/><text class="lab lft" transform="translate(-5 0)">18</text></g><g class="mut m19 s19" transform="translate(0 -87.5385)"><line x1="0" x2="0" y1="0" y2="87.5385"/><path class="sym" d="M -3,-3 l 6,6 M -3,3 l 6,-6"/><text class="lab lft" transform="translate(-5 0)">19</text></g><g class="mut m20 s20" transform="translate(0 -83.1615)"><line x1="0" x2="0" y1="0" y2="83.1615"/><path class="sym" d="M -3,-3 l 6,6 M -3,3 l 6,-6"/><text class="lab lft" transform="translate(-5 0)">20</text></g><g class="mut m21 s21" transform="translate(0 -78.7846)"><line x1="0" x2="0" y1="0" y2="78.7846"/><path class="sym" d="M -3,-3 l 6,6 M -3,3 l 6,-6"/><text class="lab lft" transform="translate(-5 0)">21</text></g><g class="mut m26 s26" transform="translate(0 -74.4077)"><line x1="0" x2="0" y1="0" y2="74.4077"/><path class="sym" d="M -3,-3 l 6,6 M -3,3 l 6,-6"/><text class="lab lft" transform="translate(-5 0)">26</text></g><g class="mut m31 s31" transform="translate(0 -70.0308)"><line x1="0" x2="0" y1="0" y2="70.0308"/><path class="sym" d="M -3,-3 l 6,6 M -3,3 l 6,-6"/><text class="lab lft" transform="translate(-5 0)">31</text></g><g class="mut m32 s32" transform="translate(0 -65.6538)"><line x1="0" x2="0" y1="0" y2="65.6538"/><path class="sym" d="M -3,-3 l 6,6 M -3,3 l 6,-6"/><text class="lab lft" transform="translate(-5 0)">32</text></g><g class="mut m36 s36" transform="translate(0 -61.2769)"><line x1="0" x2="0" y1="0" y2="61.2769"/><path class="sym" d="M -3,-3 l 6,6 M -3,3 l 6,-6"/><text class="lab lft" transform="translate(-5 0)">36</text></g><g class="mut m39 s39" transform="translate(0 -56.9)"><line x1="0" x2="0" y1="0" y2="56.9"/><path class="sym" d="M -3,-3 l 6,6 M -3,3 l 6,-6"/><text class="lab lft" transform="translate(-5 0)">39</text></g><g class="mut m40 s40" transform="translate(0 -52.5231)"><line x1="0" x2="0" y1="0" y2="52.5231"/><path class="sym" d="M -3,-3 l 6,6 M -3,3 l 6,-6"/><text class="lab lft" transform="translate(-5 0)">40</text></g><g class="mut m42 s42" transform="translate(0 -48.1462)"><line x1="0" x2="0" y1="0" y2="48.1462"/><path class="sym" d="M -3,-3 l 6,6 M -3,3 l 6,-6"/><text class="lab lft" transform="translate(-5 0)">42</text></g><g class="mut m49 s49" transform="translate(0 -43.7692)"><line x1="0" x2="0" y1="0" y2="43.7692"/><path class="sym" d="M -3,-3 l 6,6 M -3,3 l 6,-6"/><text class="lab lft" transform="translate(-5 0)">49</text></g><g class="mut m51 s51" transform="translate(0 -39.3923)"><line x1="0" x2="0" y1="0" y2="39.3923"/><path class="sym" d="M -3,-3 l 6,6 M -3,3 l 6,-6"/><text class="lab lft" transform="translate(-5 0)">51</text></g><g class="mut m54 s54" transform="translate(0 -35.0154)"><line x1="0" x2="0" y1="0" y2="35.0154"/><path class="sym" d="M -3,-3 l 6,6 M -3,3 l 6,-6"/><text class="lab lft" transform="translate(-5 0)">54</text></g><g class="mut m55 s55" transform="translate(0 -30.6385)"><line x1="0" x2="0" y1="0" y2="30.6385"/><path class="sym" d="M -3,-3 l 6,6 M -3,3 l 6,-6"/><text class="lab lft" transform="translate(-5 0)">55</text></g><g class="mut m56 s56" transform="translate(0 -26.2615)"><line x1="0" x2="0" y1="0" y2="26.2615"/><path class="sym" d="M -3,-3 l 6,6 M -3,3 l 6,-6"/><text class="lab lft" transform="translate(-5 0)">56</text></g><g class="mut m58 s58" transform="translate(0 -21.8846)"><line x1="0" x2="0" y1="0" y2="21.8846"/><path class="sym" d="M -3,-3 l 6,6 M -3,3 l 6,-6"/><text class="lab lft" transform="translate(-5 0)">58</text></g><g class="mut m59 s59" transform="translate(0 -17.5077)"><line x1="0" x2="0" y1="0" y2="17.5077"/><path class="sym" d="M -3,-3 l 6,6 M -3,3 l 6,-6"/><text class="lab lft" transform="translate(-5 0)">59</text></g><g class="mut m67 s67" transform="translate(0 -13.1308)"><line x1="0" x2="0" y1="0" y2="13.1308"/><path class="sym" d="M -3,-3 l 6,6 M -3,3 l 6,-6"/><text class="lab lft" transform="translate(-5 0)">67</text></g><g class="mut m69 s69" transform="translate(0 -8.75385)"><line x1="0" x2="0" y1="0" y2="8.75385"/><path class="sym" d="M -3,-3 l 6,6 M -3,3 l 6,-6"/><text class="lab lft" transform="translate(-5 0)">69</text></g><g class="mut m71 s71" transform="translate(0 -4.37692)"><line x1="0" x2="0" y1="0" y2="4.37692"/><path class="sym" d="M -3,-3 l 6,6 M -3,3 l 6,-6"/><text class="lab lft" transform="translate(-5 0)">71</text></g><circle class="sym" cx="0" cy="0" r="3"/><text class="lab lft" transform="translate(-3 -7.0)"/></g><circle class="sym" cx="0" cy="0" r="3"/><text class="lab" transform="translate(0 -11)"/></g></g></g></svg>