<svg xmlns="http://www.w3.org/2000/svg" xmlns:ev="http://www.w3.org/2001/xml-events" xmlns:xlink="http://www.w3.org/1999/xlink" baseProfile="full" height="400" version="1.1" width="1000"><defs><style type="text/css"><![CDATA[.background path {fill: #808080; fill-opacity: 0}.background path:nth-child(odd) {fill-opacity: .1}.axes {font-size: 14px}.x-axis .tick .lab {font-weight: bold; dominant-baseline: hanging}.axes, .tree {font-size: 14px; text-anchor: middle}.axes line, .edge {stroke: black; fill: none}.axes .ax-skip {stroke-dasharray: 4}.y-axis .grid {stroke: #FAFAFA}.node > .sym {fill: black; stroke: none}.site > .sym {stroke: black}.mut text {fill: red; font-style: italic}.mut.extra text {fill: hotpink}.mut line {fill: none; stroke: none}.mut .sym {fill: none; stroke: red}.mut.extra .sym {stroke: hotpink}.node .mut .sym {stroke-width: 1.5px}.tree text, .tree-sequence text {dominant-baseline: central}.plotbox .lab.lft {text-anchor: end}.plotbox .lab.rgt {text-anchor: start}.node.p0 > .sym {fill: red} .node.p1 > .sym {fill: green} .node.p2 > .sym {fill: blue} .node.p3 > .sym {fill: purple} .node.p4 > .sym {fill: black} .node.p5 > .sym {fill: orange}]]></style></defs><g class="tree t0"><g class="axes"><g class="y-axis"><g class="title" transform="translate(0 189.1)"><text class="lab" text-anchor="middle" transform="translate(11) rotate(-90)"> </text></g><line class="ax-line" x1="56.8" x2="56.8" y1="368.2" y2="10"/><g class="ticks"><g class="tick" transform="translate(56.8 26.8)"><line x1="0" x2="-5" y1="0" y2="0"/><g transform="translate(-6 0)"><text class="lab" text-anchor="end">29865.87</text></g></g><g class="tick" transform="translate(56.8 254.4)"><line x1="0" x2="-5" y1="0" y2="0"/><g transform="translate(-6 0)"><text class="lab" text-anchor="end">1500.00</text></g></g><g class="tick" transform="translate(56.8 140.6)"><line x1="0" x2="-5" y1="0" y2="0"/><g transform="translate(-6 0)"><text class="lab" text-anchor="end">6026.49</text></g></g><g class="tick" transform="translate(56.8 368.2)"><line x1="0" x2="-5" y1="0" y2="0"/><g transform="translate(-6 0)"><text class="lab" text-anchor="end">0.00</text></g></g></g></g></g><g class="plotbox"><g class="c2 node n4 p0 root" transform="translate(595.333 26.8)"><g class="a4 i2 leaf m0 m11 m12 m13 m17 m20 m21 m23 m26 m27 m29 m30 m5 m9 node n2 p5 s0 s11 s12 s13 s17 s20 s21 s23 s26 s27 s29 s30 s5 s9 sample" transform="translate(230.8 227.6)"><path class="edge" d="M 0 0 V -227.6 H -230.8"/><g class="mut m0 s0" transform="translate(0 -212.427)"><line x1="0" x2="0" y1="0" y2="212.427"/><path class="sym" d="M -3,-3 l 6,6 M -3,3 l 6,-6"/><text class="lab rgt" transform="translate(5 0)">0</text></g><g class="mut m5 s5" transform="translate(0 -197.253)"><line x1="0" x2="0" y1="0" y2="197.253"/><path class="sym" d="M -3,-3 l 6,6 M -3,3 l 6,-6"/><text class="lab rgt" transform="translate(5 0)">5</text></g><g class="mut m9 s9" transform="translate(0 -182.08)"><line x1="0" x2="0" y1="0" y2="182.08"/><path class="sym" d="M -3,-3 l 6,6 M -3,3 l 6,-6"/><text class="lab rgt" transform="translate(5 0)">9</text></g><g class="mut m11 s11" transform="translate(0 -166.907)"><line x1="0" x2="0" y1="0" y2="166.907"/><path class="sym" d="M -3,-3 l 6,6 M -3,3 l 6,-6"/><text class="lab rgt" transform="translate(5 0)">11</text></g><g class="mut m12 s12" transform="translate(0 -151.733)"><line x1="0" x2="0" y1="0" y2="151.733"/><path class="sym" d="M -3,-3 l 6,6 M -3,3 l 6,-6"/><text class="lab rgt" transform="translate(5 0)">12</text></g><g class="mut m13 s13" transform="translate(0 -136.56)"><line x1="0" x2="0" y1="0" y2="136.56"/><path class="sym" d="M -3,-3 l 6,6 M -3,3 l 6,-6"/><text class="lab rgt" transform="translate(5 0)">13</text></g><g class="mut m17 s17" transform="translate(0 -121.387)"><line x1="0" x2="0" y1="0" y2="121.387"/><path class="sym" d="M -3,-3 l 6,6 M -3,3 l 6,-6"/><text class="lab rgt" transform="translate(5 0)">17</text></g><g class="mut m20 s20" transform="translate(0 -106.213)"><line x1="0" x2="0" y1="0" y2="106.213"/><path class="sym" d="M -3,-3 l 6,6 M -3,3 l 6,-6"/><text class="lab rgt" transform="translate(5 0)">20</text></g><g class="mut m21 s21" transform="translate(0 -91.04)"><line x1="0" x2="0" y1="0" y2="91.04"/><path class="sym" d="M -3,-3 l 6,6 M -3,3 l 6,-6"/><text class="lab rgt" transform="translate(5 0)">21</text></g><g class="mut m23 s23" transform="translate(0 -75.8667)"><line x1="0" x2="0" y1="0" y2="75.8667"/><path class="sym" d="M -3,-3 l 6,6 M -3,3 l 6,-6"/><text class="lab rgt" transform="translate(5 0)">23</text></g><g class="mut m26 s26" transform="translate(0 -60.6933)"><line x1="0" x2="0" y1="0" y2="60.6933"/><path class="sym" d="M -3,-3 l 6,6 M -3,3 l 6,-6"/><text class="lab rgt" transform="translate(5 0)">26</text></g><g class="mut m27 s27" transform="translate(0 -45.52)"><line x1="0" x2="0" y1="0" y2="45.52"/><path class="sym" d="M -3,-3 l 6,6 M -3,3 l 6,-6"/><text class="lab rgt" transform="translate(5 0)">27</text></g><g class="mut m29 s29" transform="translate(0 -30.3467)"><line x1="0" x2="0" y1="0" y2="30.3467"/><path class="sym" d="M -3,-3 l 6,6 M -3,3 l 6,-6"/><text class="lab rgt" transform="translate(5 0)">29</text></g><g class="mut m30 s30" transform="translate(0 -15.1733)"><line x1="0" x2="0" y1="0" y2="15.1733"/><path class="sym" d="M -3,-3 l 6,6 M -3,3 l 6,-6"/><text class="lab rgt" transform="translate(5 0)">30</text></g><rect class="sym" height="6" width="6" x="-3" y="-3"/><text class="lab" transform="translate(0 11)">ND</text></g><g class="a4 c2 m1 m10 m14 m15 m16 m19 m2 m22 m28 m3 m31 m6 node n3 p4 s1 s10 s14 s15 s16 s19 s2 s22 s28 s3 s31 s6" transform="translate(-230.8 113.8)"><g class="a3 i0 leaf m18 m25 m4 m8 node n0 p3 s18 s25 s4 s8 sample" transform="translate(-153.867 227.6)"><path class="edge" d="M 0 0 V -227.6 H 153.867"/><g class="mut m4 s4" transform="translate(0 -182.08)"><line x1="0" x2="0" y1="0" y2="182.08"/><path class="sym" d="M -3,-3 l 6,6 M -3,3 l 6,-6"/><text class="lab lft" transform="translate(-5 0)">4</text></g><g class="mut m8 s8" transform="translate(0 -136.56)"><line x1="0" x2="0" y1="0" y2="136.56"/><path class="sym" d="M -3,-3 l 6,6 M -3,3 l 6,-6"/><text class="lab lft" transform="translate(-5 0)">8</text></g><g class="mut m18 s18" transform="translate(0 -91.04)"><line x1="0" x2="0" y1="0" y2="91.04"/><path class="sym" d="M -3,-3 l 6,6 M -3,3 l 6,-6"/><text class="lab lft" transform="translate(-5 0)">18</text></g><g class="mut m25 s25" transform="translate(0 -45.52)"><line x1="0" x2="0" y1="0" y2="45.52"/><path class="sym" d="M -3,-3 l 6,6 M -3,3 l 6,-6"/><text class="lab lft" transform="translate(-5 0)">25</text></g><rect class="sym" height="6" width="6" x="-3" y="-3"/><text class="lab" transform="translate(0 11)">AFR</text></g><g class="a3 i1 leaf m24 m7 node n1 p2 s24 s7 sample" transform="translate(153.867 227.6)"><path class="edge" d="M 0 0 V -227.6 H -153.867"/><g class="mut m7 s7" transform="translate(0 -151.733)"><line x1="0" x2="0" y1="0" y2="151.733"/><path class="sym" d="M -3,-3 l 6,6 M -3,3 l 6,-6"/><text class="lab rgt" transform="translate(5 0)">7</text></g><g class="mut m24 s24" transform="translate(0 -75.8667)"><line x1="0" x2="0" y1="0" y2="75.8667"/><path class="sym" d="M -3,-3 l 6,6 M -3,3 l 6,-6"/><text class="lab rgt" transform="translate(5 0)">24</text></g><rect class="sym" height="6" width="6" x="-3" y="-3"/><text class="lab" transform="translate(0 11)">EUR</text></g><path class="edge" d="M 0 0 V -113.8 H 230.8"/><g class="mut m1 s1" transform="translate(0 -105.046)"><line x1="0" x2="0" y1="0" y2="105.046"/><path class="sym" d="M -3,-3 l 6,6 M -3,3 l 6,-6"/><text class="lab lft" transform="translate(-5 0)">1</text></g><g class="mut m2 s2" transform="translate(0 -96.2923)"><line x1="0" x2="0" y1="0" y2="96.2923"/><path class="sym" d="M -3,-3 l 6,6 M -3,3 l 6,-6"/><text class="lab lft" transform="translate(-5 0)">2</text></g><g class="mut m3 s3" transform="translate(0 -87.5385)"><line x1="0" x2="0" y1="0" y2="87.5385"/><path class="sym" d="M -3,-3 l 6,6 M -3,3 l 6,-6"/><text class="lab lft" transform="translate(-5 0)">3</text></g><g class="mut m6 s6" transform="translate(0 -78.7846)"><line x1="0" x2="0" y1="0" y2="78.7846"/><path class="sym" d="M -3,-3 l 6,6 M -3,3 l 6,-6"/><text class="lab lft" transform="translate(-5 0)">6</text></g><g class="mut m10 s10" transform="translate(0 -70.0308)"><line x1="0" x2="0" y1="0" y2="70.0308"/><path class="sym" d="M -3,-3 l 6,6 M -3,3 l 6,-6"/><text class="lab lft" transform="translate(-5 0)">10</text></g><g class="mut m14 s14" transform="translate(0 -61.2769)"><line x1="0" x2="0" y1="0" y2="61.2769"/><path class="sym" d="M -3,-3 l 6,6 M -3,3 l 6,-6"/><text class="lab lft" transform="translate(-5 0)">14</text></g><g class="mut m15 s15" transform="translate(0 -52.5231)"><line x1="0" x2="0" y1="0" y2="52.5231"/><path class="sym" d="M -3,-3 l 6,6 M -3,3 l 6,-6"/><text class="lab lft" transform="translate(-5 0)">15</text></g><g class="mut m16 s16" transform="translate(0 -43.7692)"><line x1="0" x2="0" y1="0" y2="43.7692"/><path class="sym" d="M -3,-3 l 6,6 M -3,3 l 6,-6"/><text class="lab lft" transform="translate(-5 0)">16</text></g><g class="mut m19 s19" transform="translate(0 -35.0154)"><line x1="0" x2="0" y1="0" y2="35.0154"/><path class="sym" d="M -3,-3 l 6,6 M -3,3 l 6,-6"/><text class="lab lft" transform="translate(-5 0)">19</text></g><g class="mut m22 s22" transform="translate(0 -26.2615)"><line x1="0" x2="0" y1="0" y2="26.2615"/><path class="sym" d="M -3,-3 l 6,6 M -3,3 l 6,-6"/><text class="lab lft" transform="translate(-5 0)">22</text></g><g class="mut m28 s28" transform="translate(0 -17.5077)"><line x1="0" x2="0" y1="0" y2="17.5077"/><path class="sym" d="M -3,-3 l 6,6 M -3,3 l 6,-6"/><text class="lab lft" transform="translate(-5 0)">28</text></g><g class="mut m31 s31" transform="translate(0 -8.75385)"><line x1="0" x2="0" y1="0" y2="8.75385"/><path class="sym" d="M -3,-3 l 6,6 M -3,3 l 6,-6"/><text class="lab lft" transform="translate(-5 0)">31</text></g><circle class="sym" cx="0" cy="0" r="3"/><text class="lab lft" transform="translate(-3 -7.0)"/></g><circle class="sym" cx="0" cy="0" r="3"/><text class="lab" transform="translate(0 -11)"/></g></g></g></svg>