<svg xmlns="http://www.w3.org/2000/svg" xmlns:ev="http://www.w3.org/2001/xml-events" xmlns:xlink="http://www.w3.org/1999/xlink" baseProfile="full" height="400" version="1.1" width="1000"><defs><style type="text/css"><![CDATA[.background path {fill: #808080; fill-opacity: 0}.background path:nth-child(odd) {fill-opacity: .1}.axes {font-size: 14px}.x-axis .tick .lab {font-weight: bold; dominant-baseline: hanging}.axes, .tree {font-size: 14px; text-anchor: middle}.axes line, .edge {stroke: black; fill: none}.axes .ax-skip {stroke-dasharray: 4}.y-axis .grid {stroke: #FAFAFA}.node > .sym {fill: black; stroke: none}.site > .sym {stroke: black}.mut text {fill: red; font-style: italic}.mut.extra text {fill: hotpink}.mut line {fill: none; stroke: none}.mut .sym {fill: none; stroke: red}.mut.extra .sym {stroke: hotpink}.node .mut .sym {stroke-width: 1.5px}.tree text, .tree-sequence text {dominant-baseline: central}.plotbox .lab.lft {text-anchor: end}.plotbox .lab.rgt {text-anchor: start}.node.p0 > .sym {fill: red} .node.p1 > .sym {fill: green} .node.p2 > .sym {fill: blue} .node.p3 > .sym {fill: purple} .node.p4 > .sym {fill: black} .node.p5 > .sym {fill: orange}]]></style></defs><g class="tree t0"><g class="axes"><g class="y-axis"><g class="title" transform="translate(0 189.1)"><text class="lab" text-anchor="middle" transform="translate(11) rotate(-90)"> </text></g><line class="ax-line" x1="56.8" x2="56.8" y1="368.2" y2="10"/><g class="ticks"><g class="tick" transform="translate(56.8 26.8)"><line x1="0" x2="-5" y1="0" y2="0"/><g transform="translate(-6 0)"><text class="lab" text-anchor="end">29865.87</text></g></g><g class="tick" transform="translate(56.8 254.4)"><line x1="0" x2="-5" y1="0" y2="0"/><g transform="translate(-6 0)"><text class="lab" text-anchor="end">1500.00</text></g></g><g class="tick" transform="translate(56.8 140.6)"><line x1="0" x2="-5" y1="0" y2="0"/><g transform="translate(-6 0)"><text class="lab" text-anchor="end">6026.49</text></g></g><g class="tick" transform="translate(56.8 368.2)"><line x1="0" x2="-5" y1="0" y2="0"/><g transform="translate(-6 0)"><text class="lab" text-anchor="end">0.00</text></g></g></g></g></g><g class="plotbox"><g class="c2 node n4 p0 root" transform="translate(595.333 26.8)"><g class="a4 i2 leaf m0 m11 m12 m13 m18 m19 m25 m27 m28 m29 m3 m30 m31 m36 m4 m5 m6 m7 m8 m9 node n2 p5 s0 s11 s12 s13 s18 s19 s25 s27 s28 s29 s3 s30 s31 s36 s4 s5 s6 s7 s8 s9 sample" transform="translate(230.8 227.6)"><path class="edge" d="M 0 0 V -227.6 H -230.8"/><g class="mut m0 s0" transform="translate(0 -216.762)"><line x1="0" x2="0" y1="0" y2="216.762"/><path class="sym" d="M -3,-3 l 6,6 M -3,3 l 6,-6"/><text class="lab rgt" transform="translate(5 0)">0</text></g><g class="mut m3 s3" transform="translate(0 -205.924)"><line x1="0" x2="0" y1="0" y2="205.924"/><path class="sym" d="M -3,-3 l 6,6 M -3,3 l 6,-6"/><text class="lab rgt" transform="translate(5 0)">3</text></g><g class="mut m4 s4" transform="translate(0 -195.086)"><line x1="0" x2="0" y1="0" y2="195.086"/><path class="sym" d="M -3,-3 l 6,6 M -3,3 l 6,-6"/><text class="lab rgt" transform="translate(5 0)">4</text></g><g class="mut m5 s5" transform="translate(0 -184.248)"><line x1="0" x2="0" y1="0" y2="184.248"/><path class="sym" d="M -3,-3 l 6,6 M -3,3 l 6,-6"/><text class="lab rgt" transform="translate(5 0)">5</text></g><g class="mut m6 s6" transform="translate(0 -173.41)"><line x1="0" x2="0" y1="0" y2="173.41"/><path class="sym" d="M -3,-3 l 6,6 M -3,3 l 6,-6"/><text class="lab rgt" transform="translate(5 0)">6</text></g><g class="mut m7 s7" transform="translate(0 -162.571)"><line x1="0" x2="0" y1="0" y2="162.571"/><path class="sym" d="M -3,-3 l 6,6 M -3,3 l 6,-6"/><text class="lab rgt" transform="translate(5 0)">7</text></g><g class="mut m8 s8" transform="translate(0 -151.733)"><line x1="0" x2="0" y1="0" y2="151.733"/><path class="sym" d="M -3,-3 l 6,6 M -3,3 l 6,-6"/><text class="lab rgt" transform="translate(5 0)">8</text></g><g class="mut m9 s9" transform="translate(0 -140.895)"><line x1="0" x2="0" y1="0" y2="140.895"/><path class="sym" d="M -3,-3 l 6,6 M -3,3 l 6,-6"/><text class="lab rgt" transform="translate(5 0)">9</text></g><g class="mut m11 s11" transform="translate(0 -130.057)"><line x1="0" x2="0" y1="0" y2="130.057"/><path class="sym" d="M -3,-3 l 6,6 M -3,3 l 6,-6"/><text class="lab rgt" transform="translate(5 0)">11</text></g><g class="mut m12 s12" transform="translate(0 -119.219)"><line x1="0" x2="0" y1="0" y2="119.219"/><path class="sym" d="M -3,-3 l 6,6 M -3,3 l 6,-6"/><text class="lab rgt" transform="translate(5 0)">12</text></g><g class="mut m13 s13" transform="translate(0 -108.381)"><line x1="0" x2="0" y1="0" y2="108.381"/><path class="sym" d="M -3,-3 l 6,6 M -3,3 l 6,-6"/><text class="lab rgt" transform="translate(5 0)">13</text></g><g class="mut m18 s18" transform="translate(0 -97.5429)"><line x1="0" x2="0" y1="0" y2="97.5429"/><path class="sym" d="M -3,-3 l 6,6 M -3,3 l 6,-6"/><text class="lab rgt" transform="translate(5 0)">18</text></g><g class="mut m19 s19" transform="translate(0 -86.7048)"><line x1="0" x2="0" y1="0" y2="86.7048"/><path class="sym" d="M -3,-3 l 6,6 M -3,3 l 6,-6"/><text class="lab rgt" transform="translate(5 0)">19</text></g><g class="mut m25 s25" transform="translate(0 -75.8667)"><line x1="0" x2="0" y1="0" y2="75.8667"/><path class="sym" d="M -3,-3 l 6,6 M -3,3 l 6,-6"/><text class="lab rgt" transform="translate(5 0)">25</text></g><g class="mut m27 s27" transform="translate(0 -65.0286)"><line x1="0" x2="0" y1="0" y2="65.0286"/><path class="sym" d="M -3,-3 l 6,6 M -3,3 l 6,-6"/><text class="lab rgt" transform="translate(5 0)">27</text></g><g class="mut m28 s28" transform="translate(0 -54.1905)"><line x1="0" x2="0" y1="0" y2="54.1905"/><path class="sym" d="M -3,-3 l 6,6 M -3,3 l 6,-6"/><text class="lab rgt" transform="translate(5 0)">28</text></g><g class="mut m29 s29" transform="translate(0 -43.3524)"><line x1="0" x2="0" y1="0" y2="43.3524"/><path class="sym" d="M -3,-3 l 6,6 M -3,3 l 6,-6"/><text class="lab rgt" transform="translate(5 0)">29</text></g><g class="mut m30 s30" transform="translate(0 -32.5143)"><line x1="0" x2="0" y1="0" y2="32.5143"/><path class="sym" d="M -3,-3 l 6,6 M -3,3 l 6,-6"/><text class="lab rgt" transform="translate(5 0)">30</text></g><g class="mut m31 s31" transform="translate(0 -21.6762)"><line x1="0" x2="0" y1="0" y2="21.6762"/><path class="sym" d="M -3,-3 l 6,6 M -3,3 l 6,-6"/><text class="lab rgt" transform="translate(5 0)">31</text></g><g class="mut m36 s36" transform="translate(0 -10.8381)"><line x1="0" x2="0" y1="0" y2="10.8381"/><path class="sym" d="M -3,-3 l 6,6 M -3,3 l 6,-6"/><text class="lab rgt" transform="translate(5 0)">36</text></g><rect class="sym" height="6" width="6" x="-3" y="-3"/><text class="lab" transform="translate(0 11)">ND</text></g><g class="a4 c2 m1 m10 m14 m15 m20 m21 m22 m23 m24 m26 m35 node n3 p4 s1 s10 s14 s15 s20 s21 s22 s23 s24 s26 s35" transform="translate(-230.8 113.8)"><g class="a3 i0 leaf node n0 p3 sample" transform="translate(-153.867 227.6)"><path class="edge" d="M 0 0 V -227.6 H 153.867"/><rect class="sym" height="6" width="6" x="-3" y="-3"/><text class="lab" transform="translate(0 11)">AFR</text></g><g class="a3 i1 leaf m16 m17 m2 m32 m33 m34 m37 m38 node n1 p2 s16 s17 s2 s32 s33 s34 s37 s38 sample" transform="translate(153.867 227.6)"><path class="edge" d="M 0 0 V -227.6 H -153.867"/><g class="mut m2 s2" transform="translate(0 -202.311)"><line x1="0" x2="0" y1="0" y2="202.311"/><path class="sym" d="M -3,-3 l 6,6 M -3,3 l 6,-6"/><text class="lab rgt" transform="translate(5 0)">2</text></g><g class="mut m16 s16" transform="translate(0 -177.022)"><line x1="0" x2="0" y1="0" y2="177.022"/><path class="sym" d="M -3,-3 l 6,6 M -3,3 l 6,-6"/><text class="lab rgt" transform="translate(5 0)">16</text></g><g class="mut m17 s17" transform="translate(0 -151.733)"><line x1="0" x2="0" y1="0" y2="151.733"/><path class="sym" d="M -3,-3 l 6,6 M -3,3 l 6,-6"/><text class="lab rgt" transform="translate(5 0)">17</text></g><g class="mut m32 s32" transform="translate(0 -126.444)"><line x1="0" x2="0" y1="0" y2="126.444"/><path class="sym" d="M -3,-3 l 6,6 M -3,3 l 6,-6"/><text class="lab rgt" transform="translate(5 0)">32</text></g><g class="mut m33 s33" transform="translate(0 -101.156)"><line x1="0" x2="0" y1="0" y2="101.156"/><path class="sym" d="M -3,-3 l 6,6 M -3,3 l 6,-6"/><text class="lab rgt" transform="translate(5 0)">33</text></g><g class="mut m34 s34" transform="translate(0 -75.8667)"><line x1="0" x2="0" y1="0" y2="75.8667"/><path class="sym" d="M -3,-3 l 6,6 M -3,3 l 6,-6"/><text class="lab rgt" transform="translate(5 0)">34</text></g><g class="mut m37 s37" transform="translate(0 -50.5778)"><line x1="0" x2="0" y1="0" y2="50.5778"/><path class="sym" d="M -3,-3 l 6,6 M -3,3 l 6,-6"/><text class="lab rgt" transform="translate(5 0)">37</text></g><g class="mut m38 s38" transform="translate(0 -25.2889)"><line x1="0" x2="0" y1="0" y2="25.2889"/><path class="sym" d="M -3,-3 l 6,6 M -3,3 l 6,-6"/><text class="lab rgt" transform="translate(5 0)">38</text></g><rect class="sym" height="6" width="6" x="-3" y="-3"/><text class="lab" transform="translate(0 11)">EUR</text></g><path class="edge" d="M 0 0 V -113.8 H 230.8"/><g class="mut m1 s1" transform="translate(0 -104.317)"><line x1="0" x2="0" y1="0" y2="104.317"/><path class="sym" d="M -3,-3 l 6,6 M -3,3 l 6,-6"/><text class="lab lft" transform="translate(-5 0)">1</text></g><g class="mut m10 s10" transform="translate(0 -94.8333)"><line x1="0" x2="0" y1="0" y2="94.8333"/><path class="sym" d="M -3,-3 l 6,6 M -3,3 l 6,-6"/><text class="lab lft" transform="translate(-5 0)">10</text></g><g class="mut m14 s14" transform="translate(0 -85.35)"><line x1="0" x2="0" y1="0" y2="85.35"/><path class="sym" d="M -3,-3 l 6,6 M -3,3 l 6,-6"/><text class="lab lft" transform="translate(-5 0)">14</text></g><g class="mut m15 s15" transform="translate(0 -75.8667)"><line x1="0" x2="0" y1="0" y2="75.8667"/><path class="sym" d="M -3,-3 l 6,6 M -3,3 l 6,-6"/><text class="lab lft" transform="translate(-5 0)">15</text></g><g class="mut m20 s20" transform="translate(0 -66.3833)"><line x1="0" x2="0" y1="0" y2="66.3833"/><path class="sym" d="M -3,-3 l 6,6 M -3,3 l 6,-6"/><text class="lab lft" transform="translate(-5 0)">20</text></g><g class="mut m21 s21" transform="translate(0 -56.9)"><line x1="0" x2="0" y1="0" y2="56.9"/><path class="sym" d="M -3,-3 l 6,6 M -3,3 l 6,-6"/><text class="lab lft" transform="translate(-5 0)">21</text></g><g class="mut m22 s22" transform="translate(0 -47.4167)"><line x1="0" x2="0" y1="0" y2="47.4167"/><path class="sym" d="M -3,-3 l 6,6 M -3,3 l 6,-6"/><text class="lab lft" transform="translate(-5 0)">22</text></g><g class="mut m23 s23" transform="translate(0 -37.9333)"><line x1="0" x2="0" y1="0" y2="37.9333"/><path class="sym" d="M -3,-3 l 6,6 M -3,3 l 6,-6"/><text class="lab lft" transform="translate(-5 0)">23</text></g><g class="mut m24 s24" transform="translate(0 -28.45)"><line x1="0" x2="0" y1="0" y2="28.45"/><path class="sym" d="M -3,-3 l 6,6 M -3,3 l 6,-6"/><text class="lab lft" transform="translate(-5 0)">24</text></g><g class="mut m26 s26" transform="translate(0 -18.9667)"><line x1="0" x2="0" y1="0" y2="18.9667"/><path class="sym" d="M -3,-3 l 6,6 M -3,3 l 6,-6"/><text class="lab lft" transform="translate(-5 0)">26</text></g><g class="mut m35 s35" transform="translate(0 -9.48333)"><line x1="0" x2="0" y1="0" y2="9.48333"/><path class="sym" d="M -3,-3 l 6,6 M -3,3 l 6,-6"/><text class="lab lft" transform="translate(-5 0)">35</text></g><circle class="sym" cx="0" cy="0" r="3"/><text class="lab lft" transform="translate(-3 -7.0)"/></g><circle class="sym" cx="0" cy="0" r="3"/><text class="lab" transform="translate(0 -11)"/></g></g></g></svg>